<?xml version="1.0" encoding="UTF-8" standalone="no"?>
<!DOCTYPE svg PUBLIC "-//W3C//DTD SVG 1.1//EN"
 "http://www.w3.org/Graphics/SVG/1.1/DTD/svg11.dtd">
<!-- Generated by graphviz version 2.40.1 (20161225.0304)
 -->
<!-- Title: dependencies Pages: 1 -->
<svg width="684pt" height="284pt"
 viewBox="0.00 0.00 684.00 284.00" xmlns="http://www.w3.org/2000/svg" xmlns:xlink="http://www.w3.org/1999/xlink">
<g id="graph0" class="graph" transform="scale(1 1) rotate(0) translate(4 280)">
<title>dependencies</title>
<polygon fill="#ffffff" stroke="transparent" points="-4,4 -4,-280 680,-280 680,4 -4,4"/>
<text text-anchor="start" x="317.0091" y="-42.4" font-family="sans-serif" font-weight="bold" font-size="14.00" fill="#000000">Legend</text>
<polygon fill="#ffffb3" stroke="transparent" points="104,-10 104,-30 124,-30 124,-10 104,-10"/>
<text text-anchor="start" x="127.629" y="-15.4" font-family="sans-serif" font-size="14.00" fill="#000000"> &#160;Declarations</text>
<polygon fill="#8dd3c7" stroke="transparent" points="217,-10 217,-30 237,-30 237,-10 217,-10"/>
<text text-anchor="start" x="240.7251" y="-15.4" font-family="sans-serif" font-size="14.00" fill="#000000"> &#160;Module</text>
<polygon fill="#80b1d3" stroke="transparent" points="303,-10 303,-30 323,-30 323,-10 303,-10"/>
<text text-anchor="start" x="326.7812" y="-15.4" font-family="sans-serif" font-size="14.00" fill="#000000"> &#160;Bootstrap</text>
<polygon fill="#fdb462" stroke="transparent" points="400,-10 400,-30 420,-30 420,-10 400,-10"/>
<text text-anchor="start" x="423.6732" y="-15.4" font-family="sans-serif" font-size="14.00" fill="#000000"> &#160;Providers</text>
<polygon fill="#fb8072" stroke="transparent" points="496,-10 496,-30 516,-30 516,-10 496,-10"/>
<text text-anchor="start" x="519.7258" y="-15.4" font-family="sans-serif" font-size="14.00" fill="#000000"> &#160;Exports</text>
<g id="clust1" class="cluster">
<title>cluster_AppModule</title>
<polygon fill="none" stroke="#000000" stroke-dasharray="1,5" points="8,-70 8,-268 668,-268 668,-70 8,-70"/>
</g>
<g id="clust2" class="cluster">
<title>cluster_AppModule_declarations</title>
<polygon fill="none" stroke="#000000" points="16,-78 16,-130 660,-130 660,-78 16,-78"/>
</g>
<g id="clust10" class="cluster">
<title>cluster_AppModule_bootstrap</title>
<polygon fill="none" stroke="#000000" points="268,-208 268,-260 392,-260 392,-208 268,-208"/>
</g>
<!-- AppComponent -->
<g id="node1" class="node">
<title>AppComponent</title>
<polygon fill="#ffffb3" stroke="#000000" points="651.9399,-122 546.0601,-122 546.0601,-86 651.9399,-86 651.9399,-122"/>
<text text-anchor="middle" x="599" y="-99.8" font-family="Times,serif" font-size="14.00" fill="#000000">AppComponent</text>
</g>
<!-- AppModule -->
<g id="node6" class="node">
<title>AppModule</title>
<polygon fill="#8dd3c7" stroke="#000000" points="371.6571,-187 368.6571,-191 347.6571,-191 344.6571,-187 288.3429,-187 288.3429,-151 371.6571,-151 371.6571,-187"/>
<text text-anchor="middle" x="330" y="-164.8" font-family="Times,serif" font-size="14.00" fill="#000000">AppModule</text>
</g>
<!-- AppComponent&#45;&gt;AppModule -->
<g id="edge1" class="edge">
<title>AppComponent&#45;&gt;AppModule</title>
<path fill="none" stroke="#000000" d="M599,-122.2843C599,-143.3211 599,-175 599,-175 599,-175 381.7361,-175 381.7361,-175"/>
<polygon fill="#000000" stroke="#000000" points="381.7361,-171.5001 371.7361,-175 381.7361,-178.5001 381.7361,-171.5001"/>
</g>
<!-- HeaderComponent -->
<g id="node2" class="node">
<title>HeaderComponent</title>
<polygon fill="#ffffb3" stroke="#000000" points="527.7437,-122 406.2563,-122 406.2563,-86 527.7437,-86 527.7437,-122"/>
<text text-anchor="middle" x="467" y="-99.8" font-family="Times,serif" font-size="14.00" fill="#000000">HeaderComponent</text>
</g>
<!-- HeaderComponent&#45;&gt;AppModule -->
<g id="edge2" class="edge">
<title>HeaderComponent&#45;&gt;AppModule</title>
<path fill="none" stroke="#000000" d="M467,-122.0225C467,-139.3734 467,-163 467,-163 467,-163 381.8489,-163 381.8489,-163"/>
<polygon fill="#000000" stroke="#000000" points="381.849,-159.5001 371.8489,-163 381.8489,-166.5001 381.849,-159.5001"/>
</g>
<!-- LyricsComponent -->
<g id="node3" class="node">
<title>LyricsComponent</title>
<polygon fill="#ffffb3" stroke="#000000" points="388.5954,-122 271.4046,-122 271.4046,-86 388.5954,-86 388.5954,-122"/>
<text text-anchor="middle" x="330" y="-99.8" font-family="Times,serif" font-size="14.00" fill="#000000">LyricsComponent</text>
</g>
<!-- LyricsComponent&#45;&gt;AppModule -->
<g id="edge3" class="edge">
<title>LyricsComponent&#45;&gt;AppModule</title>
<path fill="none" stroke="#000000" d="M330,-122.1061C330,-122.1061 330,-140.991 330,-140.991"/>
<polygon fill="#000000" stroke="#000000" points="326.5001,-140.9909 330,-150.991 333.5001,-140.991 326.5001,-140.9909"/>
</g>
<!-- YoutubeComponent -->
<g id="node4" class="node">
<title>YoutubeComponent</title>
<polygon fill="#ffffb3" stroke="#000000" points="253.545,-122 124.455,-122 124.455,-86 253.545,-86 253.545,-122"/>
<text text-anchor="middle" x="189" y="-99.8" font-family="Times,serif" font-size="14.00" fill="#000000">YoutubeComponent</text>
</g>
<!-- YoutubeComponent&#45;&gt;AppModule -->
<g id="edge4" class="edge">
<title>YoutubeComponent&#45;&gt;AppModule</title>
<path fill="none" stroke="#000000" d="M189,-122.0225C189,-139.3734 189,-163 189,-163 189,-163 278.0771,-163 278.0771,-163"/>
<polygon fill="#000000" stroke="#000000" points="278.0771,-166.5001 288.0771,-163 278.0771,-159.5001 278.0771,-166.5001"/>
</g>
<!-- detectScroll -->
<g id="node5" class="node">
<title>detectScroll</title>
<polygon fill="#ffffb3" stroke="#000000" points="106.3641,-122 23.6359,-122 23.6359,-86 106.3641,-86 106.3641,-122"/>
<text text-anchor="middle" x="65" y="-99.8" font-family="Times,serif" font-size="14.00" fill="#000000">detectScroll</text>
</g>
<!-- detectScroll&#45;&gt;AppModule -->
<g id="edge5" class="edge">
<title>detectScroll&#45;&gt;AppModule</title>
<path fill="none" stroke="#000000" d="M65,-122.2843C65,-143.3211 65,-175 65,-175 65,-175 278.3022,-175 278.3022,-175"/>
<polygon fill="#000000" stroke="#000000" points="278.3023,-178.5001 288.3022,-175 278.3022,-171.5001 278.3023,-178.5001"/>
</g>
<!-- AppComponent  -->
<g id="node7" class="node">
<title>AppComponent </title>
<polygon fill="#80b1d3" stroke="#000000" points="384.439,-252 275.561,-252 275.561,-216 384.439,-216 384.439,-252"/>
<text text-anchor="middle" x="330" y="-229.8" font-family="Times,serif" font-size="14.00" fill="#000000">AppComponent </text>
</g>
<!-- AppModule&#45;&gt;AppComponent  -->
<g id="edge6" class="edge">
<title>AppModule&#45;&gt;AppComponent </title>
<path fill="none" stroke="#000000" stroke-dasharray="1,5" d="M330,-187.1061C330,-187.1061 330,-205.991 330,-205.991"/>
<polygon fill="#000000" stroke="#000000" points="326.5001,-205.9909 330,-215.991 333.5001,-205.991 326.5001,-205.9909"/>
</g>
</g>
</svg>
