<?xml version="1.0" encoding="UTF-8" standalone="no"?>
<!DOCTYPE svg PUBLIC "-//W3C//DTD SVG 1.1//EN"
 "http://www.w3.org/Graphics/SVG/1.1/DTD/svg11.dtd">
<!-- Generated by graphviz version 2.40.1 (20161225.0304)
 -->
<!-- Title: dependencies Pages: 1 -->
<svg width="1548pt" height="284pt"
 viewBox="0.00 0.00 1548.00 284.00" xmlns="http://www.w3.org/2000/svg" xmlns:xlink="http://www.w3.org/1999/xlink">
<g id="graph0" class="graph" transform="scale(1 1) rotate(0) translate(4 280)">
<title>dependencies</title>
<polygon fill="#ffffff" stroke="transparent" points="-4,4 -4,-280 1544,-280 1544,4 -4,4"/>
<text text-anchor="start" x="749.0091" y="-42.4" font-family="sans-serif" font-weight="bold" font-size="14.00" fill="#000000">Legend</text>
<polygon fill="#ffffb3" stroke="transparent" points="536,-10 536,-30 556,-30 556,-10 536,-10"/>
<text text-anchor="start" x="559.629" y="-15.4" font-family="sans-serif" font-size="14.00" fill="#000000"> &#160;Declarations</text>
<polygon fill="#8dd3c7" stroke="transparent" points="649,-10 649,-30 669,-30 669,-10 649,-10"/>
<text text-anchor="start" x="672.7251" y="-15.4" font-family="sans-serif" font-size="14.00" fill="#000000"> &#160;Module</text>
<polygon fill="#80b1d3" stroke="transparent" points="735,-10 735,-30 755,-30 755,-10 735,-10"/>
<text text-anchor="start" x="758.7812" y="-15.4" font-family="sans-serif" font-size="14.00" fill="#000000"> &#160;Bootstrap</text>
<polygon fill="#fdb462" stroke="transparent" points="832,-10 832,-30 852,-30 852,-10 832,-10"/>
<text text-anchor="start" x="855.6732" y="-15.4" font-family="sans-serif" font-size="14.00" fill="#000000"> &#160;Providers</text>
<polygon fill="#fb8072" stroke="transparent" points="928,-10 928,-30 948,-30 948,-10 928,-10"/>
<text text-anchor="start" x="951.7258" y="-15.4" font-family="sans-serif" font-size="14.00" fill="#000000"> &#160;Exports</text>
<g id="clust1" class="cluster">
<title>cluster_AppModule</title>
<polygon fill="none" stroke="#000000" stroke-dasharray="1,5" points="8,-70 8,-268 1532,-268 1532,-70 8,-70"/>
</g>
<g id="clust2" class="cluster">
<title>cluster_AppModule_declarations</title>
<polygon fill="none" stroke="#000000" points="16,-78 16,-130 1524,-130 1524,-78 16,-78"/>
</g>
<g id="clust15" class="cluster">
<title>cluster_AppModule_bootstrap</title>
<polygon fill="none" stroke="#000000" points="714,-208 714,-260 838,-260 838,-208 714,-208"/>
</g>
<!-- AdjustLyricPipe -->
<g id="node1" class="node">
<title>AdjustLyricPipe</title>
<polygon fill="#ffffb3" stroke="#000000" points="1516.0396,-122 1407.9604,-122 1407.9604,-86 1516.0396,-86 1516.0396,-122"/>
<text text-anchor="middle" x="1462" y="-99.8" font-family="Times,serif" font-size="14.00" fill="#000000">AdjustLyricPipe</text>
</g>
<!-- AppModule -->
<g id="node11" class="node">
<title>AppModule</title>
<polygon fill="#8dd3c7" stroke="#000000" points="817.6571,-187 814.6571,-191 793.6571,-191 790.6571,-187 734.3429,-187 734.3429,-151 817.6571,-151 817.6571,-187"/>
<text text-anchor="middle" x="776" y="-164.8" font-family="Times,serif" font-size="14.00" fill="#000000">AppModule</text>
</g>
<!-- AdjustLyricPipe&#45;&gt;AppModule -->
<g id="edge1" class="edge">
<title>AdjustLyricPipe&#45;&gt;AppModule</title>
<path fill="none" stroke="#000000" d="M1462,-122.0109C1462,-144.4852 1462,-180 1462,-180 1462,-180 827.8797,-180 827.8797,-180"/>
<polygon fill="#000000" stroke="#000000" points="827.8798,-176.5001 817.8797,-180 827.8797,-183.5001 827.8798,-176.5001"/>
</g>
<!-- AdjustPlayerSizeDirective -->
<g id="node2" class="node">
<title>AdjustPlayerSizeDirective</title>
<polygon fill="#ffffb3" stroke="#000000" points="1389.7808,-122 1224.2192,-122 1224.2192,-86 1389.7808,-86 1389.7808,-122"/>
<text text-anchor="middle" x="1307" y="-99.8" font-family="Times,serif" font-size="14.00" fill="#000000">AdjustPlayerSizeDirective</text>
</g>
<!-- AdjustPlayerSizeDirective&#45;&gt;AppModule -->
<g id="edge2" class="edge">
<title>AdjustPlayerSizeDirective&#45;&gt;AppModule</title>
<path fill="none" stroke="#000000" d="M1307,-122.1289C1307,-142.5724 1307,-173 1307,-173 1307,-173 827.6667,-173 827.6667,-173"/>
<polygon fill="#000000" stroke="#000000" points="827.6667,-169.5001 817.6667,-173 827.6666,-176.5001 827.6667,-169.5001"/>
</g>
<!-- AppComponent -->
<g id="node3" class="node">
<title>AppComponent</title>
<polygon fill="#ffffb3" stroke="#000000" points="1206.9399,-122 1101.0601,-122 1101.0601,-86 1206.9399,-86 1206.9399,-122"/>
<text text-anchor="middle" x="1154" y="-99.8" font-family="Times,serif" font-size="14.00" fill="#000000">AppComponent</text>
</g>
<!-- AppComponent&#45;&gt;AppModule -->
<g id="edge3" class="edge">
<title>AppComponent&#45;&gt;AppModule</title>
<path fill="none" stroke="#000000" d="M1154,-122.2667C1154,-140.5552 1154,-166 1154,-166 1154,-166 827.8969,-166 827.8969,-166"/>
<polygon fill="#000000" stroke="#000000" points="827.8969,-162.5001 817.8969,-166 827.8968,-169.5001 827.8969,-162.5001"/>
</g>
<!-- HeaderComponent -->
<g id="node4" class="node">
<title>HeaderComponent</title>
<polygon fill="#ffffb3" stroke="#000000" points="1082.7437,-122 961.2563,-122 961.2563,-86 1082.7437,-86 1082.7437,-122"/>
<text text-anchor="middle" x="1022" y="-99.8" font-family="Times,serif" font-size="14.00" fill="#000000">HeaderComponent</text>
</g>
<!-- HeaderComponent&#45;&gt;AppModule -->
<g id="edge4" class="edge">
<title>HeaderComponent&#45;&gt;AppModule</title>
<path fill="none" stroke="#000000" d="M1022,-122.0091C1022,-138.0494 1022,-159 1022,-159 1022,-159 827.7305,-159 827.7305,-159"/>
<polygon fill="#000000" stroke="#000000" points="827.7306,-155.5001 817.7305,-159 827.7305,-162.5001 827.7306,-155.5001"/>
</g>
<!-- LoadingSpinnerComponent -->
<g id="node5" class="node">
<title>LoadingSpinnerComponent</title>
<polygon fill="#ffffb3" stroke="#000000" points="942.5392,-122 771.4608,-122 771.4608,-86 942.5392,-86 942.5392,-122"/>
<text text-anchor="middle" x="857" y="-99.8" font-family="Times,serif" font-size="14.00" fill="#000000">LoadingSpinnerComponent</text>
</g>
<!-- LoadingSpinnerComponent&#45;&gt;AppModule -->
<g id="edge5" class="edge">
<title>LoadingSpinnerComponent&#45;&gt;AppModule</title>
<path fill="none" stroke="#000000" d="M794.5295,-122.1061C794.5295,-122.1061 794.5295,-140.991 794.5295,-140.991"/>
<polygon fill="#000000" stroke="#000000" points="791.0295,-140.9909 794.5295,-150.991 798.0295,-140.991 791.0295,-140.9909"/>
</g>
<!-- LyricsComponent -->
<g id="node6" class="node">
<title>LyricsComponent</title>
<polygon fill="#ffffb3" stroke="#000000" points="753.5954,-122 636.4046,-122 636.4046,-86 753.5954,-86 753.5954,-122"/>
<text text-anchor="middle" x="695" y="-99.8" font-family="Times,serif" font-size="14.00" fill="#000000">LyricsComponent</text>
</g>
<!-- LyricsComponent&#45;&gt;AppModule -->
<g id="edge6" class="edge">
<title>LyricsComponent&#45;&gt;AppModule</title>
<path fill="none" stroke="#000000" d="M743.8598,-122.1061C743.8598,-122.1061 743.8598,-140.991 743.8598,-140.991"/>
<polygon fill="#000000" stroke="#000000" points="740.3598,-140.9909 743.8598,-150.991 747.3598,-140.991 740.3598,-140.9909"/>
</g>
<!-- MoveVideoToTheSideDirective -->
<g id="node7" class="node">
<title>MoveVideoToTheSideDirective</title>
<polygon fill="#ffffb3" stroke="#000000" points="618.6615,-122 421.3385,-122 421.3385,-86 618.6615,-86 618.6615,-122"/>
<text text-anchor="middle" x="520" y="-99.8" font-family="Times,serif" font-size="14.00" fill="#000000">MoveVideoToTheSideDirective</text>
</g>
<!-- MoveVideoToTheSideDirective&#45;&gt;AppModule -->
<g id="edge7" class="edge">
<title>MoveVideoToTheSideDirective&#45;&gt;AppModule</title>
<path fill="none" stroke="#000000" d="M520,-122.0091C520,-138.0494 520,-159 520,-159 520,-159 724.2994,-159 724.2994,-159"/>
<polygon fill="#000000" stroke="#000000" points="724.2995,-162.5001 734.2994,-159 724.2994,-155.5001 724.2995,-162.5001"/>
</g>
<!-- SafePipe -->
<g id="node8" class="node">
<title>SafePipe</title>
<polygon fill="#ffffb3" stroke="#000000" points="403.7606,-122 338.2394,-122 338.2394,-86 403.7606,-86 403.7606,-122"/>
<text text-anchor="middle" x="371" y="-99.8" font-family="Times,serif" font-size="14.00" fill="#000000">SafePipe</text>
</g>
<!-- SafePipe&#45;&gt;AppModule -->
<g id="edge8" class="edge">
<title>SafePipe&#45;&gt;AppModule</title>
<path fill="none" stroke="#000000" d="M371,-122.2667C371,-140.5552 371,-166 371,-166 371,-166 724.1833,-166 724.1833,-166"/>
<polygon fill="#000000" stroke="#000000" points="724.1833,-169.5001 734.1833,-166 724.1833,-162.5001 724.1833,-169.5001"/>
</g>
<!-- SearchFieldComponent -->
<g id="node9" class="node">
<title>SearchFieldComponent</title>
<polygon fill="#ffffb3" stroke="#000000" points="320.1979,-122 171.8021,-122 171.8021,-86 320.1979,-86 320.1979,-122"/>
<text text-anchor="middle" x="246" y="-99.8" font-family="Times,serif" font-size="14.00" fill="#000000">SearchFieldComponent</text>
</g>
<!-- SearchFieldComponent&#45;&gt;AppModule -->
<g id="edge9" class="edge">
<title>SearchFieldComponent&#45;&gt;AppModule</title>
<path fill="none" stroke="#000000" d="M246,-122.1289C246,-142.5724 246,-173 246,-173 246,-173 723.9688,-173 723.9688,-173"/>
<polygon fill="#000000" stroke="#000000" points="723.9688,-176.5001 733.9688,-173 723.9687,-169.5001 723.9688,-176.5001"/>
</g>
<!-- YoutubeComponent -->
<g id="node10" class="node">
<title>YoutubeComponent</title>
<polygon fill="#ffffb3" stroke="#000000" points="153.545,-122 24.455,-122 24.455,-86 153.545,-86 153.545,-122"/>
<text text-anchor="middle" x="89" y="-99.8" font-family="Times,serif" font-size="14.00" fill="#000000">YoutubeComponent</text>
</g>
<!-- YoutubeComponent&#45;&gt;AppModule -->
<g id="edge10" class="edge">
<title>YoutubeComponent&#45;&gt;AppModule</title>
<path fill="none" stroke="#000000" d="M89,-122.0109C89,-144.4852 89,-180 89,-180 89,-180 724.3161,-180 724.3161,-180"/>
<polygon fill="#000000" stroke="#000000" points="724.3161,-183.5001 734.3161,-180 724.316,-176.5001 724.3161,-183.5001"/>
</g>
<!-- AppComponent  -->
<g id="node12" class="node">
<title>AppComponent </title>
<polygon fill="#80b1d3" stroke="#000000" points="830.439,-252 721.561,-252 721.561,-216 830.439,-216 830.439,-252"/>
<text text-anchor="middle" x="776" y="-229.8" font-family="Times,serif" font-size="14.00" fill="#000000">AppComponent </text>
</g>
<!-- AppModule&#45;&gt;AppComponent  -->
<g id="edge11" class="edge">
<title>AppModule&#45;&gt;AppComponent </title>
<path fill="none" stroke="#000000" stroke-dasharray="1,5" d="M776,-187.1061C776,-187.1061 776,-205.991 776,-205.991"/>
<polygon fill="#000000" stroke="#000000" points="772.5001,-205.9909 776,-215.991 779.5001,-205.991 772.5001,-205.9909"/>
</g>
</g>
</svg>
